<svg width="156" height="54" fill="none" xmlns="http://www.w3.org/2000/svg"><path fill-rule="evenodd" clip-rule="evenodd" d="M61 7.518H19.196C8.594 7.518 0 16.112 0 26.713 0 37.315 8.594 45.91 19.196 45.91H61v-1H19.196C9.146 44.91 1 36.763 1 26.713 1 16.664 9.147 8.518 19.196 8.518H61v-1zm34 37.391h41.804c10.049 0 18.196-8.146 18.196-18.196 0-10.049-8.147-18.195-18.196-18.195H95v-1h41.804c10.602 0 19.196 8.594 19.196 19.195 0 10.602-8.594 19.196-19.196 19.196H95v-1z" fill="#fff"/><path d="M77.95.24l-1.09 1.984-1.056 1.986c.757 1.394 1.426 2.602 2.174 3.971l2.175-3.971-1.118-1.986L77.95.239zm10.961 6.768l-.106-.06-.105-.067-.115-.06-.105-.067-.115-.059-.105-.06-.106-.058-.114-.06-.115-.059-.106-.05-.114-.06-.114-.059-.106-.059-.115-.05-.114-.06-.115-.05-.114-.051-.114-.05-.115-.06-.061-.025-1.013 2.12.044.018.106.042.097.05.105.051.097.043.097.05.106.05.096.052.097.042.097.05.106.06.097.05.097.051.096.05.097.051.097.06.097.05.097.051.096.06.097.058.088.051L89 7.058l-.088-.05zm-4.736-2.071l-.123-.034-.123-.034-.123-.042-.123-.034-.124-.025-.132-.034-.123-.034-.123-.033-.124-.026-.132-.033-.123-.034-.123-.026-.132-.025-.123-.025-.133-.034-.123-.025-.132-.017-.123-.026-.07-.017-.44 2.29.052.009.115.025.114.017.106.025.114.026.115.025.114.025.106.026.114.017.115.033.105.026.115.025.114.034.106.025.105.026.115.033.106.034.114.026.106.033.114.034.044.017.73-2.222-.043-.009-.124-.042zm-10.054-.566l-.132.026-.132.025-.123.017-.132.025-.123.034-.132.025-.124.026-.132.025-.123.034-.123.034-.123.025-.133.034-.123.034-.123.033-.123.026-.124.034-.123.042-.132.034-.114.033-.053.017.73 2.223.036-.017.114-.034.106-.025.106-.034.114-.034.114-.025.106-.026.115-.034.105-.025.115-.025.105-.034.115-.017.114-.025.115-.026.105-.025.115-.025.114-.026.115-.017.114-.025.106-.017.061-.008-.44-2.29-.053.008zm-4.903 1.487l-.115.05-.114.06-.115.05-.114.051-.115.051-.114.06-.115.05-.114.06-.106.058-.114.06-.115.05-.105.06-.115.058-.105.06-.115.059-.105.059-.115.067-.106.06-.105.067-.097.05 1.277 1.987.079-.051.097-.06.088-.05.096-.05.097-.06.097-.05.106-.051.097-.05.096-.052.097-.059.097-.05.097-.043.106-.05.097-.051.096-.05.106-.043.097-.05.106-.051.096-.043.106-.042.053-.025L69.27 5.84l-.052.017zm8.732 47.896l-1.09-1.984-1.056-1.986c.757-1.394 1.426-2.603 2.174-3.971l2.175 3.971-1.118 1.986-1.083 1.985zm10.961-6.768l-.106.06-.105.067-.115.059-.105.068-.115.059-.105.059-.106.059-.114.06-.115.058-.106.051-.114.06-.114.058-.106.06-.115.05-.114.06-.115.05-.114.05-.114.051-.115.06-.061.025-1.013-2.121.044-.017.106-.042.097-.05.105-.052.097-.042.097-.05.106-.051.096-.05.097-.043.097-.05.106-.06.097-.05.097-.051.096-.051.097-.05.097-.06.097-.05.097-.051.096-.06.097-.059.088-.05L89 46.935l-.088.051zm-4.736 2.071l-.123.033-.123.034-.123.042-.123.034-.124.026-.132.033-.123.034-.123.034-.124.025-.132.034-.123.034-.123.025-.132.026-.123.025-.133.034-.123.025-.132.017-.123.025-.07.017-.44-2.29.052-.008.115-.026.114-.016.106-.026.114-.025.115-.025.114-.026.106-.025.114-.017.115-.034.105-.025.115-.026.114-.033.106-.026.105-.025.115-.034.106-.034.114-.025.106-.034.114-.034.044-.016.73 2.222-.043.008-.124.043zm-10.054.565l-.132-.025-.132-.025-.123-.017-.132-.026-.123-.033-.132-.026-.124-.025-.132-.025-.123-.034-.123-.034-.123-.025-.133-.034-.123-.034-.123-.034-.123-.025-.124-.034-.123-.042-.132-.034-.114-.034-.053-.017.73-2.222.036.017.114.034.106.025.106.034.114.034.114.025.106.025.115.034.105.026.115.025.105.034.115.017.114.025.115.025.105.026.115.025.114.025.115.017.114.026.106.017.061.008-.44 2.29-.053-.009zm-4.903-1.487l-.115-.05-.114-.06-.115-.05-.114-.05-.115-.051-.114-.06-.115-.05-.114-.06-.106-.059-.114-.059-.115-.05-.105-.06-.115-.059-.105-.059-.115-.06-.105-.058-.115-.068-.106-.059-.105-.068-.097-.05 1.277-1.986.079.05.097.06.088.05.096.051.097.06.097.05.106.05.097.051.096.051.097.06.097.05.097.042.106.051.097.05.096.051.106.043.097.05.106.051.096.042.106.042.053.026-1.013 2.112-.052-.017z" fill="#fff"/></svg>